<?xml version="1.0" standalone="no"?>
<!DOCTYPE svg PUBLIC "-//W3C//DTD SVG 20010904//EN"
 "http://www.w3.org/TR/2001/REC-SVG-20010904/DTD/svg10.dtd">
<svg version="1.0" xmlns="http://www.w3.org/2000/svg"
 width="1200.000000pt" height="1200.000000pt" viewBox="0 0 1200.000000 1200.000000"
 preserveAspectRatio="xMidYMid meet">
<metadata>
Created by potrace 1.14, written by Peter Selinger 2001-2017
</metadata>
<g transform="translate(0.000000,1200.000000) scale(0.100000,-0.100000)"
fill="#212121" stroke="none">
<path d="M0 6000 l0 -6000 6000 0 6000 0 0 6000 0 6000 -6000 0 -6000 0 0
-6000z m6603 4614 c21 -8 18 -23 -6 -38 -12 -8 -24 -6 -47 8 -25 14 -36 16
-62 7 -17 -6 -62 -14 -100 -18 -38 -3 -71 -9 -73 -13 -6 -10 57 -48 104 -64
27 -8 37 -18 43 -43 5 -21 19 -38 37 -48 73 -37 164 -63 245 -70 84 -7 88 -9
116 -43 16 -20 49 -45 72 -56 34 -17 46 -30 58 -64 9 -25 30 -55 53 -73 29
-24 37 -37 37 -63 0 -42 8 -49 37 -31 21 14 24 14 43 -5 23 -23 70 -113 70
-134 0 -8 -18 -29 -39 -47 -56 -44 -57 -55 -11 -100 22 -22 38 -45 35 -50 -4
-5 -22 -16 -41 -24 -19 -8 -34 -18 -34 -24 0 -26 23 -65 60 -101 63 -61 52
-110 -24 -110 -55 -1 -129 -18 -138 -33 -10 -16 0 -52 28 -109 13 -26 24 -51
24 -56 0 -5 -25 -27 -56 -48 -43 -30 -64 -38 -95 -37 -33 2 -42 -2 -51 -22
-11 -24 -15 -25 -92 -22 -78 2 -112 -5 -101 -22 2 -5 47 -11 100 -15 93 -7 97
-7 126 18 17 14 40 26 52 26 28 0 121 62 143 95 15 22 14 28 -12 86 -26 57
-27 62 -11 74 9 7 47 15 84 18 37 4 73 13 81 21 8 8 16 34 19 58 5 41 2 47
-42 96 -39 43 -45 55 -35 67 7 8 20 15 29 15 60 0 53 95 -8 115 -34 10 -31 32
10 64 50 40 49 58 -1 158 -29 58 -49 86 -77 104 -21 13 -47 42 -59 64 -28 51
-75 98 -141 141 -29 19 -59 47 -67 63 -19 36 -28 39 -150 52 -99 10 -236 51
-236 71 0 5 30 6 70 2 49 -4 70 -3 70 5 0 11 -5 12 -100 31 -76 15 -83 20 -60
50 17 23 21 24 52 12 47 -17 58 -15 118 12 l52 24 66 -20 c37 -11 83 -24 102
-30 88 -25 316 -123 430 -183 208 -111 341 -205 470 -335 139 -138 190 -210
248 -350 54 -131 78 -216 97 -350 27 -193 18 -270 -50 -438 -81 -198 -297
-477 -465 -600 -41 -30 -87 -66 -102 -80 -23 -21 -30 -23 -43 -12 -8 7 -15 19
-15 27 0 29 -34 71 -74 94 -33 19 -60 24 -137 27 -114 5 -185 -12 -265 -63
-29 -19 -75 -45 -101 -59 -66 -33 -86 -58 -151 -183 -57 -108 -57 -108 -93
-107 -20 1 -78 18 -129 39 -81 32 -101 37 -155 33 -55 -3 -74 -11 -191 -80
-107 -63 -134 -84 -157 -121 -39 -61 -46 -116 -19 -141 21 -18 21 -17 54 30
56 80 75 99 130 129 96 54 218 36 289 -42 50 -55 70 -93 84 -162 17 -80 9
-136 -28 -210 -31 -61 -50 -71 -80 -43 -13 13 -40 25 -59 29 -31 4 -41 0 -74
-30 -36 -32 -43 -35 -86 -30 -30 4 -61 0 -85 -10 -27 -10 -59 -13 -111 -9 -45
3 -87 0 -111 -8 -31 -10 -46 -9 -95 5 -66 19 -111 14 -167 -18 -33 -19 -41
-20 -71 -9 -19 6 -68 12 -110 12 -41 0 -99 5 -129 11 -37 7 -67 8 -90 1 -28
-7 -46 -5 -84 9 -43 16 -66 18 -229 11 -149 -7 -186 -11 -208 -26 -34 -22 -52
-16 -78 26 -26 43 -25 70 4 105 54 65 69 117 86 293 18 190 43 250 96 230 31
-12 52 -46 75 -122 36 -120 61 -97 29 27 -23 88 -45 119 -107 146 -87 40 -143
-24 -193 -221 -12 -47 -26 -91 -32 -97 -50 -61 -150 102 -207 338 -32 132 -44
299 -31 434 15 169 34 210 144 321 50 51 115 122 145 159 53 67 53 67 46 121
-10 83 -45 70 -45 -16 0 -48 -21 -70 -67 -70 -34 0 -35 -1 -29 -33 8 -43 -10
-67 -73 -97 -66 -30 -80 -20 -60 42 21 68 14 152 -21 253 -37 107 -45 183 -32
285 12 94 41 168 122 307 34 59 83 144 109 187 70 121 140 189 288 280 70 44
175 110 233 147 176 114 284 153 637 230 155 34 217 43 353 49 177 9 475 5
503 -6z m740 -2365 c24 -26 27 -37 27 -93 0 -51 -8 -84 -40 -163 -22 -54 -52
-149 -67 -212 -25 -109 -26 -120 -15 -215 l11 -100 -50 -53 c-64 -68 -87 -122
-101 -233 -12 -109 0 -239 32 -326 37 -99 37 -107 -5 -142 -50 -40 -342 -190
-485 -247 -153 -61 -227 -102 -427 -236 -204 -136 -252 -159 -418 -202 l-130
-34 -110 19 c-64 10 -156 35 -218 58 -60 23 -165 54 -235 71 -70 17 -145 39
-167 48 -147 67 -215 226 -218 507 -2 156 6 177 54 143 16 -11 45 -25 63 -30
19 -5 54 -30 80 -55 44 -45 47 -46 91 -39 26 3 60 2 79 -5 23 -7 47 -8 76 -1
39 9 48 6 104 -25 73 -40 92 -42 141 -12 36 20 38 21 89 5 62 -20 105 -21 140
-6 19 9 34 8 70 -6 45 -17 49 -17 105 0 48 14 65 15 92 6 51 -17 93 -13 143
15 30 17 56 24 73 21 42 -8 89 11 158 63 35 28 73 50 84 50 32 0 60 32 79 89
15 48 24 60 77 96 77 54 105 94 140 197 39 112 41 255 6 368 -32 103 -31 195
4 254 56 96 171 196 225 196 20 0 22 -4 16 -32 -3 -18 -9 -74 -12 -125 -8
-108 5 -143 54 -143 56 0 81 46 156 285 52 164 79 219 127 259 37 32 61 28
102 -15z m-971 -910 c29 -16 58 -86 58 -145 l0 -52 -49 -21 c-27 -11 -57 -21
-66 -21 -25 0 -37 49 -33 139 4 67 8 86 23 97 23 17 40 18 67 3z m-1223 -77
c33 -24 39 -47 40 -155 l1 -88 -72 3 c-70 3 -72 4 -80 33 -4 17 -11 69 -14
117 -8 107 0 123 60 115 21 -3 51 -14 65 -25z m1065 15 c12 -9 23 -39 32 -83
20 -104 21 -101 -42 -129 -31 -14 -63 -25 -70 -25 -23 0 -34 45 -34 131 0 66
3 82 20 99 23 23 68 26 94 7z m-1420 -15 c5 -15 25 -150 26 -174 0 -17 -68 -7
-85 12 -26 29 -33 122 -11 155 20 30 62 34 70 7z m175 -5 c9 -22 31 -182 31
-221 0 -16 -6 -18 -40 -13 -80 10 -103 43 -116 168 -8 70 7 89 72 89 37 0 46
-4 53 -23z m1063 7 c13 -8 28 -76 34 -155 7 -85 11 -79 -63 -94 -18 -4 -35
-11 -38 -16 -12 -19 6 -26 47 -19 62 12 68 2 68 -99 0 -69 -4 -93 -21 -121
-28 -47 -47 -60 -85 -60 -56 0 -57 6 -59 290 -1 143 1 264 4 268 13 20 84 24
113 6z m-654 -15 c21 -8 22 -13 22 -133 0 -74 -4 -127 -10 -131 -15 -10 -117
5 -137 20 -13 10 -18 33 -22 104 -6 96 0 139 21 153 14 8 88 1 126 -13z m431
6 c17 -8 35 -30 45 -55 18 -46 31 -169 19 -186 -4 -7 -41 -16 -82 -20 -117
-14 -102 -44 22 -44 l59 0 -4 -105 c-2 -81 -7 -108 -20 -121 -24 -24 -111 -31
-142 -11 -21 14 -23 23 -24 99 -1 46 -8 141 -17 213 -19 165 -19 209 1 229 20
20 105 21 143 1z m-249 -32 c24 -22 35 -47 52 -115 22 -84 22 -88 5 -105 -14
-14 -34 -18 -95 -18 l-77 0 -3 106 c-3 133 5 159 53 159 24 0 44 -8 65 -27z
m870 -152 c7 -14 6 -40 -5 -91 -19 -88 -29 -108 -60 -116 -44 -11 -55 10 -55
101 l0 82 48 21 c58 26 59 26 72 3z m-170 -60 c13 -25 13 -161 0 -195 -19 -50
-112 -85 -139 -53 -7 10 -9 46 -3 118 l7 103 40 23 c49 28 81 29 95 4z m-1308
-25 c32 -7 44 -42 54 -148 6 -57 4 -69 -10 -74 -25 -10 -59 18 -89 74 -48 89
-47 170 3 158 8 -2 27 -7 42 -10z m244 -18 c4 -7 10 -49 12 -94 4 -75 3 -83
-19 -103 -28 -26 -79 -28 -108 -3 -12 9 -26 35 -31 57 -14 59 -12 142 3 148
26 11 136 7 143 -5z m171 -28 c23 0 37 -7 47 -22 17 -26 31 -136 22 -171 -12
-51 -105 -63 -155 -21 -31 26 -31 27 -31 123 0 54 2 100 6 103 3 3 22 2 42 -3
20 -5 52 -9 69 -9z m259 -4 c16 -12 19 -27 19 -88 0 -62 -4 -78 -24 -105 -28
-38 -50 -47 -90 -38 -38 8 -51 41 -58 147 l-6 87 49 4 c27 2 58 4 70 5 11 1
29 -4 40 -12z m-2649 -31 c43 -14 105 -39 138 -55 33 -16 76 -32 95 -36 36 -7
48 -12 90 -35 83 -45 125 -68 181 -100 35 -20 87 -44 114 -54 28 -10 57 -24
66 -32 8 -7 40 -21 70 -32 55 -19 177 -80 354 -176 88 -48 362 -185 370 -185
2 0 32 -16 67 -36 34 -20 88 -50 118 -66 30 -16 62 -35 70 -42 29 -25 209
-146 257 -172 26 -15 82 -51 123 -80 42 -28 102 -67 135 -85 81 -43 202 -125
305 -204 47 -36 92 -65 101 -65 8 0 65 38 125 84 60 47 156 113 214 147 136
80 547 345 580 374 8 8 40 27 70 43 30 16 82 45 115 63 33 19 116 61 185 93
69 32 136 65 150 74 14 9 59 34 100 55 221 117 320 166 368 181 28 10 52 21
52 25 0 5 28 18 63 31 34 12 90 39 125 59 35 20 75 42 90 50 15 7 43 23 62 36
19 12 62 30 95 40 33 10 87 30 120 45 33 16 76 33 95 40 19 7 44 16 55 20 39
16 74 20 81 9 7 -12 -138 -159 -226 -230 -25 -20 -77 -67 -116 -105 -82 -80
-187 -167 -247 -206 -23 -15 -59 -43 -79 -62 -21 -18 -75 -59 -121 -90 -46
-31 -115 -84 -154 -119 -38 -35 -88 -77 -109 -93 -21 -16 -42 -34 -47 -41 -4
-6 -51 -42 -105 -79 -53 -37 -108 -77 -122 -90 -29 -26 -148 -108 -170 -116
-8 -3 -44 -28 -80 -55 -72 -54 -215 -143 -230 -143 -6 0 -19 -9 -29 -19 -11
-11 -73 -50 -138 -87 -65 -37 -147 -86 -183 -109 -36 -23 -93 -59 -127 -81
-35 -21 -63 -46 -63 -54 0 -8 13 -24 29 -35 16 -11 91 -68 165 -127 75 -60
149 -116 164 -125 39 -26 104 -75 128 -98 49 -47 94 -85 102 -85 5 0 19 -12
33 -26 33 -35 144 -114 161 -114 19 0 88 -59 88 -76 0 -8 -15 -31 -34 -51 -18
-21 -45 -57 -60 -80 -14 -24 -28 -43 -31 -43 -4 0 -54 27 -110 61 -16 10 -67
36 -112 58 -46 23 -83 45 -83 50 0 5 -19 19 -42 31 -149 78 -181 97 -238 136
-25 17 -88 53 -140 81 -52 28 -122 67 -155 87 -62 37 -114 63 -176 90 -20 9
-42 22 -49 31 -17 20 -52 19 -81 -3 -24 -18 -39 -25 -118 -58 -24 -10 -49 -23
-55 -29 -13 -13 -94 -59 -226 -128 -52 -28 -111 -62 -130 -76 -47 -35 -63 -44
-227 -131 -24 -12 -43 -26 -43 -31 0 -4 -46 -31 -102 -59 -56 -28 -107 -55
-112 -59 -14 -11 -85 -51 -91 -51 -3 0 -17 19 -31 43 -15 23 -42 59 -60 80
-19 20 -34 43 -34 51 0 17 69 76 88 76 17 0 128 79 161 114 14 14 28 26 33 26
8 0 47 32 103 85 29 27 93 76 127 98 15 9 89 65 164 125 74 59 149 116 165
127 16 11 29 27 29 36 0 8 -25 31 -56 50 -30 18 -89 55 -129 81 -91 58 -284
168 -295 168 -4 0 -10 7 -14 15 -3 8 -18 21 -33 27 -45 20 -173 99 -237 147
-32 24 -68 49 -80 55 -40 22 -165 106 -170 115 -3 5 -47 38 -98 72 -50 35
-104 75 -118 89 -15 14 -44 38 -65 54 -21 16 -70 58 -108 93 -39 35 -109 89
-156 121 -46 31 -99 72 -116 90 -18 17 -36 32 -40 32 -7 0 -54 34 -189 140
-17 14 -62 56 -100 93 -38 37 -89 84 -115 105 -89 71 -234 219 -227 231 9 14
3 15 93 -14z m808 -1845 c8 -16 15 -35 15 -42 0 -18 63 -150 105 -219 42 -67
108 -256 100 -285 -7 -30 -63 -82 -96 -89 -36 -8 -48 1 -138 100 -110 121
-312 325 -322 325 -5 0 -9 8 -9 18 1 11 27 30 82 57 57 27 101 59 146 102 35
35 72 63 82 63 11 0 26 -12 35 -30z m3807 -33 c45 -43 89 -75 146 -102 55 -27
81 -46 82 -57 0 -10 -4 -18 -10 -18 -10 0 -209 -202 -310 -315 -87 -97 -108
-115 -136 -115 -29 0 -100 61 -108 94 -9 35 55 210 113 312 29 49 65 125 82
169 17 44 33 83 36 88 12 20 48 1 105 -56z m-3424 -669 c70 -17 88 -33 126
-111 30 -62 34 -77 27 -108 -19 -82 -93 -137 -204 -153 -43 -6 -62 10 -125
103 -42 63 -44 94 -12 170 20 45 30 56 79 81 67 35 53 32 109 18z m3030 -17
c39 -20 62 -39 74 -63 26 -51 38 -107 28 -132 -11 -30 -54 -93 -90 -133 -26
-28 -34 -31 -67 -27 -110 16 -186 71 -203 151 -7 29 -2 47 27 109 37 77 47 87
117 109 56 18 50 18 114 -14z m-3377 -360 c42 -43 43 -41 -43 -112 -20 -17
-40 -39 -43 -50 -4 -10 -19 -26 -34 -33 -15 -8 -49 -34 -76 -58 -26 -24 -60
-52 -75 -63 -98 -72 -129 -97 -132 -103 -4 -10 -137 -115 -174 -138 -46 -29
-202 -144 -248 -184 -47 -40 -80 -60 -99 -60 -14 0 -36 26 -102 124 -72 106
-77 115 -70 133 3 10 58 44 128 78 67 32 131 67 142 76 11 9 47 30 81 47 33
17 66 37 73 46 8 9 22 16 33 16 11 0 39 12 62 28 22 15 52 32 66 38 56 24 157
75 185 93 17 11 81 45 143 77 62 31 115 61 118 65 10 17 36 9 65 -20z m3685
20 c5 -6 56 -34 114 -64 58 -30 121 -64 140 -75 33 -21 136 -72 190 -96 14 -6
44 -23 66 -38 23 -16 51 -28 62 -28 12 0 25 -6 29 -14 4 -7 37 -28 73 -46 36
-18 74 -40 85 -49 11 -9 75 -44 142 -76 69 -34 125 -68 128 -78 7 -18 2 -27
-70 -133 -66 -98 -88 -124 -102 -124 -20 0 -53 21 -99 61 -22 20 -54 45 -70
55 -29 18 -141 100 -263 191 -35 26 -78 62 -96 78 -17 17 -55 48 -84 70 -79
60 -194 153 -209 169 -32 33 -92 92 -111 109 -28 23 -26 33 8 68 30 30 50 36
67 20z m-3125 -102 c11 -5 36 -36 56 -67 45 -70 86 -121 182 -223 88 -93 124
-144 119 -167 -3 -17 -30 -37 -115 -84 -26 -15 -65 -42 -86 -60 -32 -27 -41
-30 -64 -22 -33 11 -92 124 -153 293 -24 64 -52 136 -63 160 -29 64 -25 97 19
142 39 40 68 48 105 28z m2594 -20 c34 -30 52 -68 47 -99 -2 -8 -11 -33 -21
-55 -11 -22 -36 -87 -57 -145 -46 -130 -109 -265 -135 -291 -28 -28 -49 -24
-102 21 -26 21 -72 51 -102 65 -29 15 -61 35 -70 45 -27 29 -5 69 95 176 116
125 161 181 193 236 49 85 93 98 152 47z"/>
<path d="M6220 10461 c-45 -47 -112 -71 -195 -68 -95 2 -116 -26 -29 -39 47
-7 207 19 231 38 6 5 13 22 15 36 3 24 7 27 41 25 38 -2 49 11 25 35 -21 21
-50 13 -88 -27z"/>
<path d="M5846 10349 c-14 -11 -26 -29 -26 -40 0 -14 -9 -21 -31 -26 -17 -3
-40 -18 -51 -33 -11 -16 -33 -31 -49 -34 -33 -6 -37 -27 -15 -80 16 -39 11
-52 -27 -61 -24 -6 -27 -12 -27 -49 0 -41 -2 -44 -49 -69 -27 -15 -60 -27 -75
-27 -19 0 -26 -5 -26 -20 0 -34 49 -155 70 -172 39 -32 20 -48 -60 -48 -57 0
-65 -9 -51 -53 6 -17 11 -50 13 -72 3 -37 0 -41 -31 -57 -61 -30 -67 -69 -21
-121 37 -43 37 -52 0 -101 -31 -40 -37 -73 -21 -104 5 -9 14 -29 20 -44 6 -16
15 -28 21 -28 19 0 22 29 6 61 -21 43 -21 47 14 99 37 55 38 89 5 120 -24 22
-33 50 -17 50 4 0 26 17 50 39 36 33 42 45 42 78 0 21 -7 48 -15 60 -22 31 -5
38 87 38 119 0 127 23 27 79 l-34 19 28 9 c15 5 27 16 27 23 0 20 -40 45 -72
45 -29 0 -54 31 -44 56 8 22 44 16 61 -10 19 -29 44 -41 58 -27 6 6 2 20 -12
39 -29 41 -27 49 14 63 30 11 35 17 35 46 0 30 5 36 45 53 25 11 45 24 45 29
0 5 -13 19 -30 31 -16 12 -30 29 -30 39 0 22 72 81 119 97 26 8 37 19 39 36 2
12 15 35 28 49 38 40 7 55 -40 18z"/>
<path d="M6534 9375 c-19 -102 22 -346 83 -489 30 -72 122 -232 170 -296 50
-66 146 -137 211 -156 75 -22 207 -15 285 16 96 37 229 151 204 176 -9 10 -42
-8 -101 -55 -27 -22 -74 -52 -105 -68 -49 -24 -67 -28 -142 -28 -76 0 -92 4
-152 33 -224 111 -401 439 -416 771 -4 83 -10 126 -18 128 -7 3 -15 -11 -19
-32z"/>
<path d="M5203 9224 c-53 -28 -88 -39 -158 -48 -68 -8 -90 -15 -90 -26 0 -40
194 -10 285 43 53 32 78 67 46 67 -8 0 -45 -16 -83 -36z"/>
<path d="M5832 9220 c-6 -11 -24 -23 -39 -26 -33 -9 -268 -181 -268 -197 0
-24 39 -18 80 12 24 17 47 31 51 31 3 0 36 25 71 55 36 30 73 55 83 55 11 0
35 8 55 17 34 16 37 16 83 -7 46 -23 172 -37 172 -19 0 12 -53 46 -112 74 -69
32 -157 35 -176 5z"/>
<path d="M7214 9117 c-10 -26 44 -247 69 -282 13 -16 16 -16 45 -1 38 20 90
21 111 2 9 -8 47 -28 84 -45 60 -26 69 -28 74 -14 10 27 -28 87 -62 96 -52 16
-58 22 -72 70 -15 52 -45 76 -69 57 -7 -7 -23 -27 -34 -45 -45 -74 -71 -55
-100 71 -21 92 -35 119 -46 91z"/>
<path d="M5750 8965 c-36 -19 -80 -51 -97 -70 -32 -34 -33 -38 -33 -121 0
-121 55 -284 96 -284 19 0 16 27 -15 113 -25 67 -36 160 -27 210 5 28 20 46
71 87 35 28 80 56 101 64 52 18 56 36 7 36 -24 0 -62 -13 -103 -35z"/>
<path d="M4919 8960 c-89 -11 -221 -114 -279 -215 -37 -64 -70 -189 -70 -262
0 -46 3 -54 17 -51 12 2 20 22 29 75 21 124 60 209 133 286 65 68 122 107 160
107 39 0 32 -21 -26 -75 -42 -39 -72 -79 -105 -142 -75 -142 -98 -214 -98
-302 0 -70 3 -80 29 -111 27 -33 32 -35 92 -34 42 0 76 6 99 19 105 55 331
271 374 356 33 66 36 162 7 226 -41 88 -205 145 -362 123z"/>
<path d="M5934 8917 c-72 -35 -131 -91 -162 -154 -14 -29 -14 -38 2 -100 27
-111 83 -211 141 -255 67 -52 156 -78 259 -78 46 0 105 -7 132 -15 93 -28 166
-13 195 41 10 20 8 28 -17 59 -54 68 -93 137 -104 188 -18 84 -45 131 -121
212 -85 90 -135 121 -204 130 -44 5 -59 2 -121 -28z"/>
<path d="M7647 8724 c-3 -3 -23 -12 -44 -19 -41 -14 -51 -37 -18 -43 52 -10
58 -45 20 -116 -20 -38 -23 -51 -14 -67 8 -16 13 -18 25 -8 8 6 14 20 14 30 0
10 20 41 45 69 52 58 58 95 23 127 -30 26 -44 34 -51 27z"/>
<path d="M5366 8424 c-80 -29 -104 -52 -146 -137 -73 -154 -120 -377 -104
-501 6 -41 15 -59 44 -88 25 -25 47 -38 64 -38 15 0 77 19 137 41 l111 42 26
-22 c45 -36 91 -52 140 -49 41 3 48 7 67 38 18 32 20 52 20 210 0 171 -1 176
-27 230 -46 91 -151 225 -200 253 -58 33 -86 38 -132 21z m99 -44 c27 -11 45
-25 43 -33 -2 -6 -28 -23 -56 -37 -39 -19 -59 -37 -76 -67 -13 -23 -44 -61
-69 -85 -34 -32 -49 -57 -61 -98 -21 -75 -36 -180 -36 -267 0 -69 1 -73 23
-74 12 0 16 -3 9 -6 -7 -3 -24 -2 -38 1 -81 21 -68 255 28 503 41 106 68 141
133 169 40 18 46 17 100 -6z"/>
<path d="M4930 6440 c0 -44 35 -107 88 -162 50 -52 64 -57 84 -30 7 10 36 28
64 40 86 36 257 20 509 -50 22 -6 68 -13 103 -15 60 -5 63 -3 89 26 17 20 37
31 53 31 14 0 36 7 48 16 15 10 38 14 70 12 61 -4 66 21 7 38 -102 29 -108 27
-169 -32 -49 -48 -60 -54 -98 -54 -51 0 -137 26 -232 69 -61 28 -73 30 -98 20
-22 -9 -35 -9 -54 -1 -34 16 -184 0 -252 -27 -29 -12 -63 -21 -77 -21 -33 0
-81 61 -95 122 -14 55 -40 67 -40 18z"/>
</g>
</svg>
